<?xml version="1.0" encoding="UTF-8" standalone="no"?>
<!-- Created with Inkscape (http://www.inkscape.org/) -->
<svg xmlns:rdf="http://www.w3.org/1999/02/22-rdf-syntax-ns#" xmlns="http://www.w3.org/2000/svg" height="25.016" width="30" version="1.1" xmlns:cc="http://creativecommons.org/ns#" xmlns:dc="http://purl.org/dc/elements/1.1/">
	<metadata>
		<rdf:RDF>
			<cc:Work rdf:about="">
				<dc:format>image/svg+xml</dc:format>
				<dc:type rdf:resource="http://purl.org/dc/dcmitype/StillImage"/>
				<dc:title/>
			</cc:Work>
		</rdf:RDF>
	</metadata>
	<path style="enable-background:accumulate;color:#000000;" d="m0,0,0,25.016,30,0v-25.016zm1.7689,1.6424,26.462,0,0,21.731-26.462,0z" fill="#ff4081"/>
	<path style="enable-background:accumulate;color:#000000;" fill-rule="nonzero" transform="matrix(0.16774474,-0.06110312,0.06106117,0.16762957,-4596.8459,1631.542)" fill="#ff4081" d="m27343,273.44,10.23,20.727,22.874,3.3238-16.552,16.134,3.907,22.782-20.459-10.756-20.459,10.756,3.907-22.782-16.551-16.134,22.874-3.3238z"/>
	<rect style="enable-background:accumulate;color:#000000;" fill-rule="nonzero" height="1.6397" width="12.649" y="4.8904" x="14.813" fill="#ff4081"/>
	<rect style="enable-background:accumulate;color:#000000;" fill-rule="nonzero" height="1.6397" width="12.649" y="7.6097" x="14.813" fill="#ff4081"/>
	<rect style="enable-background:accumulate;color:#000000;" fill-rule="nonzero" height="1.6397" width="12.649" y="10.329" x="14.813" fill="#ff4081"/>
	<rect style="enable-background:accumulate;color:#000000;" fill-rule="nonzero" height="1.6397" width="12.649" y="13.048" x="14.813" fill="#ff4081"/>
	<rect style="enable-background:accumulate;color:#000000;" fill-rule="nonzero" height="1.6397" width="12.649" y="15.767" x="14.813" fill="#ff4081"/>
	<rect style="enable-background:accumulate;color:#000000;" fill-rule="nonzero" height="1.6397" width="12.649" y="18.486" x="14.813" fill="#ff4081"/>
</svg>
