<?xml version="1.0" encoding="UTF-8" standalone="no"?>
<!-- Created with Inkscape (http://www.inkscape.org/) -->
<svg xmlns:rdf="http://www.w3.org/1999/02/22-rdf-syntax-ns#" xmlns="http://www.w3.org/2000/svg" height="12.626" width="15" version="1.1" xmlns:cc="http://creativecommons.org/ns#" xmlns:dc="http://purl.org/dc/elements/1.1/">
	<metadata>
		<rdf:RDF>
			<cc:Work rdf:about="">
				<dc:format>image/svg+xml</dc:format>
				<dc:type rdf:resource="http://purl.org/dc/dcmitype/StillImage"/>
				<dc:title/>
			</cc:Work>
		</rdf:RDF>
	</metadata>
	<rect style="enable-background:accumulate;color:#000000;" fill-rule="nonzero" ry="0" height="1.2069" width="15" y="11.419" x="0" fill="#b3b3b3"/>
	<rect style="enable-background:accumulate;color:#000000;" fill-rule="nonzero" ry="0" height="1.2069" width="7.4819" y="9.1355" x="7.5174" fill="#b3b3b3"/>
	<rect style="enable-background:accumulate;color:#000000;" fill-rule="nonzero" ry="0" height="1.2069" width="7.4819" y="6.8516" x="7.5174" fill="#b3b3b3"/>
	<rect style="enable-background:accumulate;color:#000000;" fill-rule="nonzero" ry="0" height="1.2069" width="7.4819" y="4.5677" x="7.5174" fill="#b3b3b3"/>
	<rect style="enable-background:accumulate;color:#000000;" fill-rule="nonzero" ry="0" height="1.2069" width="7.4819" y="2.2838" x="7.5174" fill="#b3b3b3"/>
	<rect style="enable-background:accumulate;color:#000000;" fill-rule="nonzero" ry="0" height="1.2069" width="7.4819" y="0" x="7.5174" fill="#b3b3b3"/>
	<path style="enable-background:accumulate;color:#000000;" fill-rule="nonzero" transform="matrix(0.17971948,0,0,0.17971948,-6624.6349,375.81988)" fill="#b3b3b3" d="m36881-2030.3-6.159-10.675-5.917-10.241,12.323,0,11.829,0-6.166,10.67z"/>
	<rect style="enable-background:accumulate;color:#000000;" transform="matrix(0,-1,1,0,0,0)" fill-rule="nonzero" ry="0" height="1.2069" width="7.4819" y="2.9984" x="-8.2294" fill="#b3b3b3"/>
</svg>
