<?xml version="1.0" encoding="UTF-8" standalone="no"?>
<!-- Created with Inkscape (http://www.inkscape.org/) -->
<svg xmlns:rdf="http://www.w3.org/1999/02/22-rdf-syntax-ns#" xmlns="http://www.w3.org/2000/svg" height="30" width="30" version="1.1" xmlns:cc="http://creativecommons.org/ns#" xmlns:dc="http://purl.org/dc/elements/1.1/">
	<metadata>
		<rdf:RDF>
			<cc:Work rdf:about="">
				<dc:format>image/svg+xml</dc:format>
				<dc:type rdf:resource="http://purl.org/dc/dcmitype/StillImage"/>
				<dc:title/>
			</cc:Work>
		</rdf:RDF>
	</metadata>
	<path style="enable-background:accumulate;color:#000000;" fill-rule="nonzero" fill="#ff4081" d="M2.5,0c-1.3826,0-2.5,1.0929-2.5,2.4755v25.024c0,1.383,1.1174,2.5,2.5,2.5h25c1.383,0,2.5-1.117,2.5-2.5v-22.672l-4.853-4.8284h-1.2746v5.6372c0,0.53768-0.4427,0.9804-0.9803,0.9804h-15.784c-0.5376,0-0.9803-0.44272-0.9803-0.9804l-0.0002-5.6372h-3.6275zm1.201,14.118,22.549,0,0,11.716-22.549,0,0-11.716z"/>
	<rect style="enable-background:accumulate;color:#000000;" fill-rule="nonzero" height="2.3529" width="15.686" y="16.316" x="7.1812" fill="#ff4081"/>
	<rect style="enable-background:accumulate;color:#000000;" fill-rule="nonzero" height="2.3529" width="15.686" y="21.238" x="7.1812" fill="#ff4081"/>
	<path style="enable-background:accumulate;color:#000000;" fill-rule="nonzero" fill="#ff4081" d="m7.4755,0,0,4.3382c0,0.63164,0.5203,1.152,1.152,1.152h12.745c0.6317,0,1.152-0.52032,1.152-1.152v-4.3382h-15.048z"/>
</svg>
