<?xml version="1.0" encoding="UTF-8" standalone="no"?>
<!-- Created with Inkscape (http://www.inkscape.org/) -->
<svg xmlns:rdf="http://www.w3.org/1999/02/22-rdf-syntax-ns#" xmlns="http://www.w3.org/2000/svg" height="27.356" width="30" version="1.1" xmlns:cc="http://creativecommons.org/ns#" xmlns:dc="http://purl.org/dc/elements/1.1/">
	<metadata>
		<rdf:RDF>
			<cc:Work rdf:about="">
				<dc:format>image/svg+xml</dc:format>
				<dc:type rdf:resource="http://purl.org/dc/dcmitype/StillImage"/>
				<dc:title/>
			</cc:Work>
		</rdf:RDF>
	</metadata>
	<path style="enable-background:accumulate;color:#000000;" d="M6.0889,0.84108,5.3509,3.5862h-2.2846v2.8454l-2.2079,0.59034,1.7887,6.6649-1.7828,6.6472,2.202,0.59034v2.8454h2.2787l0.73792,2.7451,8.92-2.3909,8.9141,2.3909,0.73792-2.7451h2.2787v-2.8454l2.2019-0.59034-1.7828-6.6531,1.7887-6.6649-2.2079-0.59034v-2.8395h-2.2846l-0.732-2.7452-8.908,2.3908z" stroke="#ff4081" stroke-width="1.32235527" fill="none"/>
	<path style="enable-background:accumulate;color:#000000;" fill="#ff4081" d="M22.25,3.6562l-18.562,5.0313,4.125,15.156,1.3125-0.344,1.281-4.75,1.906-1.938,2.063-2.124,2.063-5.3755,3.312,2.9065,2.406,3.719,3.594,3.031,0.625-0.157-4.125-15.156zm-12.531,5.9688c1.2292,0,2.2192,0.99,2.2192,2.219s-0.99,2.25-2.2192,2.25-2.25-1.021-2.25-2.25,1.0208-2.219,2.25-2.219z"/>
	<path stroke-linejoin="miter" style="enable-background:accumulate;color:#000000;" d="M24.649,3.5862,27.353,13.681" stroke-dashoffset="0" stroke="#ff4081" stroke-linecap="square" stroke-miterlimit="4" stroke-dasharray="none" stroke-width="1.32235527" fill="none"/>
	<path stroke-linejoin="miter" style="enable-background:accumulate;color:#000000;" d="M2.6472,13.687,5.345,23.77" stroke-dashoffset="0" stroke="#ff4081" stroke-linecap="square" stroke-miterlimit="4" stroke-dasharray="none" stroke-width="1.32235527" fill="none"/>
	<path stroke-linejoin="miter" style="enable-background:accumulate;color:#000000;" d="M3.0663,6.4316,15.009,3.2319" stroke-dashoffset="0" stroke="#ff4081" stroke-linecap="square" stroke-miterlimit="4" stroke-dasharray="none" stroke-width="1.32235527" fill="none"/>
	<path stroke-linejoin="miter" style="enable-background:accumulate;color:#000000;" d="m5.3498,3.585,7.3191,0.00543" stroke-dashoffset="0" stroke="#ff4081" stroke-linecap="square" stroke-miterlimit="4" stroke-dasharray="none" stroke-width="1.32005775" fill="none"/>
	<path stroke-linejoin="miter" style="enable-background:accumulate;color:#000000;" d="M15.003,24.124,26.934,20.924" stroke-dashoffset="0" stroke="#ff4081" stroke-linecap="square" stroke-miterlimit="4" stroke-dasharray="none" stroke-width="1.32005775" fill="none"/>
	<path stroke-linejoin="miter" style="enable-background:accumulate;color:#000000;" d="m17.475,23.763,7.1796,0.007" stroke-dashoffset="0" stroke="#ff4081" stroke-linecap="square" stroke-miterlimit="4" stroke-dasharray="none" stroke-width="1.32005775" fill="none"/>
	<path stroke-linejoin="miter" style="enable-background:accumulate;color:#000000;" d="m3.0646,20.926,0.00957-4.4017" stroke-dashoffset="0" stroke="#ff4081" stroke-linecap="square" stroke-miterlimit="4" stroke-dasharray="none" stroke-width="1.31666994" fill="none"/>
	<path stroke-linejoin="miter" style="enable-background:accumulate;color:#000000;" d="m26.923,10.651,0.01054-4.2256" stroke-dashoffset="0" stroke="#ff4081" stroke-linecap="square" stroke-miterlimit="4" stroke-dasharray="none" stroke-width="1.31666994" fill="none"/>
</svg>
