<?xml version="1.0" encoding="UTF-8" standalone="no"?>
<!-- Created with Inkscape (http://www.inkscape.org/) -->
<svg xmlns:rdf="http://www.w3.org/1999/02/22-rdf-syntax-ns#" xmlns="http://www.w3.org/2000/svg" height="20" width="19.992" version="1.1" xmlns:cc="http://creativecommons.org/ns#" xmlns:dc="http://purl.org/dc/elements/1.1/">
	<metadata>
		<rdf:RDF>
			<cc:Work rdf:about="">
				<dc:format>image/svg+xml</dc:format>
				<dc:type rdf:resource="http://purl.org/dc/dcmitype/StillImage"/>
				<dc:title/>
			</cc:Work>
		</rdf:RDF>
	</metadata>
	<path style="enable-background:accumulate;color:#000000;" fill-rule="nonzero" fill="#b3b3b3" d="m12.692,0.0001c-0.2659,0-0.5346,0.013-0.7992,0.038-1.6467,0.1576-3.2298,0.8702-4.4909,2.1313-2.3896,2.3896-2.7902,6.019-1.2179,8.8295l-5.5945,5.5565c-0.7865,0.7864-0.7865,2.068,0,2.8544,0.7862,0.7864,2.068,0.7864,2.8543,0l5.5946-5.5946c2.8096,1.5673,6.4041,1.2076,8.7915-1.1798,2.8825-2.8825,2.8825-7.5836,0-10.466-1.4187-1.4188-3.2765-2.1466-5.1379-2.1694zm-0.076,2.3977c1.2829,0,2.5605,0.4674,3.5393,1.4462,1.9576,1.9576,1.9576,5.1593,0,7.1169s-5.1212,1.9576-7.0788,0-1.9576-5.1593,0-7.1169c0.9788-0.9788,2.2564-1.4462,3.5395-1.4462z"/>
</svg>
