<?xml version="1.0" encoding="UTF-8" standalone="no"?>
<!-- Created with Inkscape (http://www.inkscape.org/) -->
<svg xmlns:rdf="http://www.w3.org/1999/02/22-rdf-syntax-ns#" xmlns="http://www.w3.org/2000/svg" height="15" width="14.009" version="1.1" xmlns:cc="http://creativecommons.org/ns#" xmlns:dc="http://purl.org/dc/elements/1.1/">
	<metadata>
		<rdf:RDF>
			<cc:Work rdf:about="">
				<dc:format>image/svg+xml</dc:format>
				<dc:type rdf:resource="http://purl.org/dc/dcmitype/StillImage"/>
				<dc:title/>
			</cc:Work>
		</rdf:RDF>
	</metadata>
	<rect ry="0.65756" style="enable-background:accumulate;color:#000000;" fill-rule="nonzero" transform="matrix(0.8660254,-0.50000001,0.50000001,0.8660254,0,0)" height="1.3151" width="10.043" y="7.412" x="-1.5866" fill="#b3b3b3"/>
	<rect style="enable-background:accumulate;color:#000000;" transform="matrix(0.8660254,0.50000001,0.50000001,-0.8660254,0,0)" fill-rule="nonzero" ry="0.65756" height="1.3151" width="10.043" y="-5.4926" x="5.8639" fill="#b3b3b3"/>
	<path style="enable-background:accumulate;color:#000000;" d="m48.75-42.322a25.714,25.714,0,1,1,-51.429,0,25.714,25.714,0,1,1,51.429,0z" fill-rule="nonzero" transform="matrix(0.12046849,0,0,0.12046849,0.32268326,12.537269)" fill="#b3b3b3"/>
	<path style="enable-background:accumulate;color:#000000;" d="m48.75-42.322a25.714,25.714,0,1,1,-51.429,0,25.714,25.714,0,1,1,51.429,0z" fill-rule="nonzero" transform="matrix(0.12046849,0,0,0.12046849,8.1365872,8.1962109)" fill="#b3b3b3"/>
	<path style="enable-background:accumulate;color:#000000;" d="m48.75-42.322a25.714,25.714,0,1,1,-51.429,0,25.714,25.714,0,1,1,51.429,0z" fill-rule="nonzero" transform="matrix(0.12046849,0,0,0.12046849,8.1365872,17.000689)" fill="#b3b3b3"/>
</svg>
