<?xml version="1.0" encoding="UTF-8" standalone="no"?>
<!-- Created with Inkscape (http://www.inkscape.org/) -->
<svg xmlns:rdf="http://www.w3.org/1999/02/22-rdf-syntax-ns#" xmlns="http://www.w3.org/2000/svg" height="30" width="26.265" version="1.1" xmlns:cc="http://creativecommons.org/ns#" xmlns:dc="http://purl.org/dc/elements/1.1/">
	<metadata>
		<rdf:RDF>
			<cc:Work rdf:about="">
				<dc:format>image/svg+xml</dc:format>
				<dc:type rdf:resource="http://purl.org/dc/dcmitype/StillImage"/>
				<dc:title/>
			</cc:Work>
		</rdf:RDF>
	</metadata>
	<path fill="#b3b3b3" d="M26.265,8.1377c-0.112-1.381-0.214-2.817-0.307-4.308s-0.143-2.7675-0.148-3.8297h-0.97166c-0.326,0.41881-0.653,0.71233-0.979,0.88057-0.327,0.16833-0.79,0.24923-1.389,0.24293h-18.401c-0.6505,0.0234-1.1641-0.0234-1.5412-0.14045-0.377-0.117-0.7237-0.44468-1.0399-0.98305h-0.97166c-0.04812,1.2412-0.11897,2.5696-0.2126,3.9853-0.09362,1.4158-0.19484,2.8505-0.30364,4.3042h1.3664c0.2809-1.0425,0.539-1.9028,0.7743-2.581,0.2353-0.6781,0.4934-1.2044,0.7743-1.5789,0.248-0.4688,0.7464-0.8142,1.4954-1.0362s2.0825-0.3321,4.0005-0.3302h2.6417v21.65c0.07021,1.7169-0.16891,2.8454-0.71736,3.3856-0.54847,0.54023-1.8276,0.84894-3.8373,0.92611v1.2753h13.451v-1.2753c-2.0825-0.07907-3.4059-0.39157-3.9701-0.9375-0.56429-0.54592-0.80973-1.6707-0.73634-3.3742v-21.65h3.0972c1.6757-0.00756,2.8485,0.09112,3.5185,0.29605,0.66989,0.20499,1.1671,0.56177,1.4916,1.0703,0.28654,0.36693,0.55602,0.87806,0.80845,1.5334,0.25238,0.65539,0.49909,1.5309,0.74013,2.6265z"/>
</svg>
