<?xml version="1.0" encoding="UTF-8" standalone="no"?>
<!-- Created with Inkscape (http://www.inkscape.org/) -->
<svg xmlns:rdf="http://www.w3.org/1999/02/22-rdf-syntax-ns#" xmlns="http://www.w3.org/2000/svg" height="30" width="30" version="1.1" xmlns:cc="http://creativecommons.org/ns#" xmlns:dc="http://purl.org/dc/elements/1.1/">
	<metadata>
		<rdf:RDF>
			<cc:Work rdf:about="">
				<dc:format>image/svg+xml</dc:format>
				<dc:type rdf:resource="http://purl.org/dc/dcmitype/StillImage"/>
				<dc:title/>
			</cc:Work>
		</rdf:RDF>
	</metadata>
	<path style="enable-background:accumulate;color:#000000;" fill-rule="nonzero" fill="#ff4081" d="m26.708,3.2917c-4.3672-4.3672-11.434-4.3998-15.801-0.0321-3.2226,3.2229-4.0642,7.9424-2.5304,11.939l-7.0407,7.041c-1.7812,1.7812-1.7812,4.6431,0,6.4243,1.7814,1.7812,4.6431,1.7812,6.4243,0l7.0408-7.04c3.9971,1.5338,8.7169,0.69222,11.94-2.5309,4.3672-4.3672,4.3347-11.434-0.032-15.801zm-3.8612,3.8609c2.237,2.237,2.2693,5.8419,0.032,8.0789-2.237,2.2367-5.8744,2.237-8.1115,0-2.2367-2.237-2.2367-5.8744,0.0002-8.1113,2.2369-2.237,5.8419-2.2045,8.0788,0.0321z"/>
</svg>
