<?xml version="1.0" encoding="UTF-8" standalone="no"?>
<!-- Created with Inkscape (http://www.inkscape.org/) -->
<svg xmlns:rdf="http://www.w3.org/1999/02/22-rdf-syntax-ns#" xmlns="http://www.w3.org/2000/svg" height="20" width="20" version="1.1" xmlns:cc="http://creativecommons.org/ns#" xmlns:dc="http://purl.org/dc/elements/1.1/">
	<metadata>
		<rdf:RDF>
			<cc:Work rdf:about="">
				<dc:format>image/svg+xml</dc:format>
				<dc:type rdf:resource="http://purl.org/dc/dcmitype/StillImage"/>
				<dc:title/>
			</cc:Work>
		</rdf:RDF>
	</metadata>
	<path style="enable-background:accumulate;color:#000000;" fill-rule="nonzero" fill="#b3b3b3" d="M0,0.0000091278,0.00005,3.3035,3.3035,0.000029128,0,0.0000091278zm0,5.5129,0,2.2725,7.7854-7.7854h-2.2725l-5.5129,5.5129zm0,4.4819,0,2.2722,12.267-12.267h-2.2725l-9.9945,9.9948zm0,4.4612,0,2.272,16.728-16.728h-2.2725l-14.456,14.456zm0.0105,4.4713,0,1.0731,1.1994-0.00002,18.79-18.79,0.00005-1.1994-1.0731-0.00001l-18.916,18.916zm3.3877,1.0731,2.2725,0,14.329-14.329,0-2.2725l-16.602,16.602zm4.4818,0.00002,2.2725,0,9.8475-9.8475,0-2.2725l-12.12,12.12zm4.4819,0.00001,2.2515-0.00001,5.3866-5.3866,0-2.2515-7.6381,7.6381zm4.4608,0,3.1773-0.00001,0-3.1773-3.1773,3.1773z"/>
</svg>
