<?xml version="1.0" encoding="UTF-8" standalone="no"?>
<!-- Created with Inkscape (http://www.inkscape.org/) -->
<svg xmlns:rdf="http://www.w3.org/1999/02/22-rdf-syntax-ns#" xmlns="http://www.w3.org/2000/svg" height="30" width="19.25" version="1.1" xmlns:cc="http://creativecommons.org/ns#" xmlns:dc="http://purl.org/dc/elements/1.1/">
	<metadata>
		<rdf:RDF>
			<cc:Work rdf:about="">
				<dc:format>image/svg+xml</dc:format>
				<dc:type rdf:resource="http://purl.org/dc/dcmitype/StillImage"/>
				<dc:title/>
			</cc:Work>
		</rdf:RDF>
	</metadata>
	<path d="m15.208,0.5c0.5168,0.00004,0.9952,0.10117,1.4351,0.3034,0.44,0.20229,0.8172,0.4708,1.1315,0.80555,0.3141,0.3348,0.5586,0.72538,0.7333,1.1717,0.1745,0.44639,0.2618,0.91369,0.2618,1.4019,0,0.83697-0.22,1.7332-0.6599,2.6887-0.4401,0.95553-1.0511,1.932-1.8333,2.9293-0.7821,0.99737-1.7145,1.9947-2.7969,2.9921-1.0825,0.99737-2.2663,1.9564-3.5512,2.877-0.2655,0.1953-0.5413,0.40453-0.8277,0.6277-0.2862,0.22319-0.5446,0.44987-0.7751,0.68001-0.2305,0.23018-0.4226,0.46033-0.5761,0.69049-0.1537,0.23016-0.2376,0.44986-0.2515,0.65908,0.3353,0.00001,0.7857-0.0383,1.3514-0.11508,0.5656-0.0767,1.1488-0.16738,1.7494-0.27201,0.6006-0.10458,1.1523-0.20573,1.6551-0.30338,0.5028-0.0976,0.859-0.16738,1.0685-0.20924,0.2235-0.0418,0.4121-0.0628,0.5657-0.0628,0.2235,0.00001,0.3876,0.0523,0.4923,0.15693,0.1048,0.10459,0.1571,0.28945,0.1572,0.55447-0.0001,0.36269-0.1397,0.71838-0.4191,1.0671-0.2793,0.34873-0.6983,0.62074-1.257,0.81602-0.2793,0.0976-0.7089,0.19181-1.2885,0.28247-0.5796,0.0907-1.1872,0.17437-1.8228,0.25108-0.6355,0.0767-1.236,0.13601-1.8017,0.17785-0.5658,0.0418-0.9743,0.0627-1.2256,0.0627-0.1677,0-0.3771-0.0209-0.6286-0.0627-0.2508-0.042-0.4883-0.122-0.7117-0.24-0.2235-0.119-0.4156-0.279-0.5762-0.482-0.1606-0.202-0.2409-0.47-0.2409-0.805,0-0.26502,0.025-0.57189,0.074-0.92064,0.049-0.34871,0.213-0.75323,0.4924-1.2136,0.2793-0.46031,0.7263-0.99037,1.3408-1.5902,0.6146-0.59979,1.4806-1.2763,2.598-2.0296,1.1593-0.78113,2.2173-1.5867,3.1741-2.4167,0.9567-0.82994,1.7739-1.632,2.4513-2.4062,0.6773-0.77415,1.2046-1.4995,1.5817-2.176,0.3771-0.67651,0.5657-1.2519,0.5657-1.7262,0-0.16737-0.021-0.33127-0.063-0.49171-0.042-0.16039-0.1118-0.30336-0.2096-0.42893-0.097-0.12551-0.2269-0.22664-0.3876-0.30339-0.1606-0.0767-0.3666-0.11505-0.618-0.11508-0.8102,0.00003-1.6865,0.10813-2.6294,0.32431-0.9428,0.21624-1.8891,0.49173-2.8388,0.82648-0.9498,0.3348-1.8647,0.70794-2.7447,1.1194-0.8799,0.41151-1.6586,0.81255-2.336,1.2031-0.6774,0.3906-1.2186,0.74979-1.6237,1.0776-0.405,0.32782-0.6075,0.56844-0.6075,0.72186,0,0.0558,0.014,0.10469,0.042,0.14646,0.028,0.0418,0.042,0.0907,0.042,0.14647,0,0.12555-0.069,0.23366-0.2095,0.32431-0.1397,0.0907-0.3038,0.16741-0.4923,0.23017-0.1886,0.0627-0.3702,0.10811-0.5448,0.13599-0.1745,0.028-0.2898,0.0418-0.3457,0.0418-0.083,0.00002-0.1711-0.0627-0.2618-0.18831-0.091-0.12552-0.1746-0.28594-0.2515-0.48124-0.0769-0.1943-0.1395-0.4105-0.1885-0.6477-0.049-0.2371-0.074-0.4673-0.074-0.6905,0-0.22317,0.1991-0.55794,0.5971-1.0043,0.3981-0.44635,0.9463-0.93107,1.6447-1.4542,0.6984-0.52306,1.5224-1.0601,2.4722-1.6111,0.9497-0.55095,1.9694-1.0531,3.0589-1.5065,1.0894-0.45332,2.2243-0.82297,3.4046-1.1089,1.1801-0.28593,2.3569-0.4289,3.5301-0.42894zm-4.589,23.183c0.3072,0.00001,0.6005,0.13253,0.8799,0.39755,0.2793,0.26504,0.419,0.71838,0.419,1.36,0,0.47426-0.1502,0.95202-0.4504,1.4333-0.3003,0.48124-0.6635,0.91714-1.0895,1.3077-0.4256,0.39-0.8691,0.708-1.33,0.952s-0.852,0.366-1.1732,0.366c-0.4749,0-0.8311-0.101-1.0686-0.303-0.2374-0.203-0.3561-0.527-0.3561-0.973,0-0.6556,0.1361-1.2728,0.4085-1.8517,0.2724-0.57887,0.7578-1.1612,1.4561-1.7471,0.3631-0.30687,0.7578-0.54052,1.1837-0.70093,0.4261-0.16042,0.7996-0.24062,1.121-0.24063z" stroke="#ff4081" stroke-width="1" fill="#ff4081"/>
</svg>
