<?xml version="1.0" encoding="UTF-8" standalone="no"?>
<!-- Created with Inkscape (http://www.inkscape.org/) -->
<svg xmlns:rdf="http://www.w3.org/1999/02/22-rdf-syntax-ns#" xmlns="http://www.w3.org/2000/svg" height="13.969" width="15" version="1.1" xmlns:cc="http://creativecommons.org/ns#" xmlns:dc="http://purl.org/dc/elements/1.1/">
	<metadata>
		<rdf:RDF>
			<cc:Work rdf:about="">
				<dc:format>image/svg+xml</dc:format>
				<dc:type rdf:resource="http://purl.org/dc/dcmitype/StillImage"/>
				<dc:title/>
			</cc:Work>
		</rdf:RDF>
	</metadata>
	<rect style="enable-background:accumulate;color:#000000;" fill-rule="nonzero" ry="0" height="1.2234" width="7.5845" y="10.366" x="7.4155" fill="#ff4081"/>
	<rect style="enable-background:accumulate;color:#000000;" fill-rule="nonzero" ry="0" height="1.2234" width="15" y="7.9862" x="0" fill="#ff4081"/>
	<rect style="enable-background:accumulate;color:#000000;" fill-rule="nonzero" ry="0" height="1.2234" width="7.5845" y="5.6068" x="7.4155" fill="#ff4081"/>
	<rect style="enable-background:accumulate;color:#000000;" fill-rule="nonzero" ry="0" height="1.2234" width="7.5845" y="3.2274" x="7.4155" fill="#ff4081"/>
	<rect style="enable-background:accumulate;color:#000000;" fill-rule="nonzero" ry="0" height="1.2234" width="7.5845" y="0.84799" x="7.4155" fill="#ff4081"/>
	<path style="enable-background:accumulate;color:#000000;" d="m36881-2030.3-6.159-10.675-5.917-10.241,12.323,0,11.829,0-6.166,10.67z" fill-rule="nonzero" transform="matrix(0.18218315,0,0,0.18218315,-6715.6528,376.83504)" fill="#ff4081"/>
	<rect ry="0" style="enable-background:accumulate;color:#000000;" fill-rule="nonzero" transform="matrix(0,-1,1,0,0,0)" height="1.2234" width="4.2054" y="2.8346" x="-4.2054" fill="#ff4081"/>
	<rect style="enable-background:accumulate;color:#000000;" fill-rule="nonzero" ry="0" height="1.2234" width="7.5845" y="12.745" x="7.4155" fill="#ff4081"/>
</svg>
