<?xml version="1.0" encoding="UTF-8" standalone="no"?>
<!-- Created with Inkscape (http://www.inkscape.org/) -->
<svg xmlns:rdf="http://www.w3.org/1999/02/22-rdf-syntax-ns#" xmlns="http://www.w3.org/2000/svg" height="15" width="10.341" version="1.1" xmlns:cc="http://creativecommons.org/ns#" xmlns:dc="http://purl.org/dc/elements/1.1/">
	<metadata>
		<rdf:RDF>
			<cc:Work rdf:about="">
				<dc:format>image/svg+xml</dc:format>
				<dc:type rdf:resource="http://purl.org/dc/dcmitype/StillImage"/>
				<dc:title/>
			</cc:Work>
		</rdf:RDF>
	</metadata>
	<path fill="#ff4081" d="M5.1562,0c-1.9883,0-3.5937,1.6054-3.5937,3.5938v2.6874h-1.0625c-0.27888,0-0.5,0.2212-0.5,0.5v7.7188c0,0.279,0.22112,0.5,0.5,0.5h9.3438c0.2792,0,0.5002-0.221,0.5002-0.5v-7.7188c0-0.2789-0.221-0.5-0.5002-0.5h-1.0626v-2.6874c0-1.9884-1.6366-3.5938-3.625-3.5938zm0.0313,1.4688c1.0756,0,1.9375,0.9349,1.9375,2.0937v2.6875h-3.9062v-2.6875c0.0602-0.964,0.7392-2.0937,1.9687-2.0937z"/>
</svg>
