<?xml version="1.0" encoding="UTF-8" standalone="no"?>
<!-- Created with Inkscape (http://www.inkscape.org/) -->
<svg xmlns:rdf="http://www.w3.org/1999/02/22-rdf-syntax-ns#" xmlns="http://www.w3.org/2000/svg" height="15" width="15" version="1.1" xmlns:cc="http://creativecommons.org/ns#" xmlns:dc="http://purl.org/dc/elements/1.1/">
	<metadata>
		<rdf:RDF>
			<cc:Work rdf:about="">
				<dc:format>image/svg+xml</dc:format>
				<dc:type rdf:resource="http://purl.org/dc/dcmitype/StillImage"/>
				<dc:title/>
			</cc:Work>
		</rdf:RDF>
	</metadata>
	<path fill-rule="evenodd" fill="#b3b3b3" d="m14.953,6.6671c-0.02372-0.21085-0.26957-0.3693-0.48215-0.3693-0.68731,0-1.2972-0.40357-1.553-1.0277-0.26131-0.63926-0.09281-1.3848,0.41942-1.8546,0.16124-0.1474,0.18083-0.39414,0.0456-0.56553-0.35178-0.44671-0.7516-0.85023-1.1882-1.1999-0.17095-0.13718-0.42176-0.11809-0.57,0.0461-0.44704,0.4951-1.2501,0.6791-1.8706,0.4202-0.64573-0.27163-1.0529-0.92596-1.0131-1.6283,0.013116-0.22062-0.14812-0.41244-0.36807-0.43806-0.56023-0.0648-1.1254-0.0668-1.6873-0.004-0.21744,0.024-0.37868,0.2113-0.37137,0.42913,0.024445,0.69546-0.38766,1.3383-1.027,1.6002-0.61308,0.25043-1.4105,0.068-1.8566-0.42271-0.14745-0.16163-0.39419-0.18149-0.56598-0.0476-0.4495,0.35266-0.85832,0.75651-1.2133,1.1995-0.13847,0.17223-0.1181,0.42187,0.04476,0.57005,0.522,0.47272,0.69055,1.2247,0.41936,1.8713-0.25891,0.61649-0.89906,1.0138-1.6319,1.0138-0.23781-0.008-0.4072,0.15198-0.4332,0.36819-0.065968,0.56347-0.06675,1.1376-0.003237,1.7056,0.023552,0.21174,0.27688,0.36879,0.49181,0.36879,0.6531-0.0167,1.2801,0.38767,1.5432,1.0278,0.2622,0.63926,0.093651,1.3843-0.41936,1.8546-0.16046,0.14739-0.18083,0.39374-0.045597,0.56514,0.34848,0.44386,0.74837,0.84776,1.1865,1.2004,0.17184,0.13846,0.42187,0.11893,0.57083-0.0452,0.44872-0.49632,1.2517-0.68,1.8697-0.42059,0.64735,0.27079,1.0545,0.92507,1.0147,1.6278-0.013004,0.22073,0.14902,0.41289,0.36807,0.43811,0.28659,0.0334,0.57491,0.0501,0.86401,0.0501,0.27442,0,0.5489-0.0151,0.82332-0.0456,0.2175-0.024,0.37862-0.2113,0.37131-0.42952-0.025171-0.69507,0.38766-1.338,1.0261-1.5994,0.61721-0.2521,1.4112-0.0676,1.8574,0.4226,0.14829,0.16129,0.3933,0.18077,0.56603,0.0473,0.44866-0.35183,0.85664-0.75535,1.2133-1.1996,0.13841-0.17184,0.11888-0.42188-0.04482-0.57-0.522-0.47272-0.69138-1.2248-0.4202-1.871,0.25494-0.60829,0.87132-1.0167,1.5343-1.0167l0.09276,0.002c0.21504,0.0175,0.41289-0.14818,0.43895-0.36768,0.06608-0.56397,0.06686-1.1376,0.0033-1.7056zm-7.4413,3.3499c-1.3795,0-2.5017-1.1221-2.5017-2.5017,0-1.3795,1.1221-2.5017,2.5017-2.5017,1.3795,0,2.5016,1.1222,2.5016,2.5017s-1.1221,2.5017-2.5016,2.5017z"/>
</svg>
