<?xml version="1.0" encoding="UTF-8" standalone="no"?>
<!-- Created with Inkscape (http://www.inkscape.org/) -->
<svg xmlns:rdf="http://www.w3.org/1999/02/22-rdf-syntax-ns#" xmlns="http://www.w3.org/2000/svg" height="15" width="15" version="1.1" xmlns:cc="http://creativecommons.org/ns#" xmlns:dc="http://purl.org/dc/elements/1.1/">
	<metadata>
		<rdf:RDF>
			<cc:Work rdf:about="">
				<dc:format>image/svg+xml</dc:format>
				<dc:type rdf:resource="http://purl.org/dc/dcmitype/StillImage"/>
				<dc:title/>
			</cc:Work>
		</rdf:RDF>
	</metadata>
	<path fill="#b3b3b3" d="m13.996,3.1098c-0.67-0.96012-1.58-1.7184-2.729-2.275-1.15-0.55648-2.4052-0.8348-3.7669-0.8348-1.0156,0-1.9866,0.16433-2.913,0.49304-0.9263,0.3287-1.7242,0.77296-2.3939,1.3327-0.6698,0.5599-1.2026,1.2255-1.5988,1.9968-0.39627,0.7713-0.59437,1.5801-0.59437,2.4264,0,0.97636,0.25243,1.8912,0.7575,2.7439,0.50507,0.85262,1.1955,1.5688,2.0718,2.1481-0.061451,0.26029-0.13398,0.50772-0.21772,0.74188-0.083704,0.23433-0.15902,0.4266-0.22599,0.57628-0.067022,0.14969-0.15762,0.31576-0.2721,0.49801-0.11431,0.18221-0.2008,0.31084-0.25941,0.38559-0.058549,0.07489-0.1548,0.19877-0.28882,0.37103-0.13384,0.17264-0.22039,0.28484-0.25941,0.33703-0.00566,0.0027-0.027941,0.03254-0.066992,0.08779-0.039022,0.05521-0.058607,0.08284-0.058607,0.08284l-0.050222,0.08775c-0.027941,0.0489-0.040489,0.07979-0.037733,0.09258,0.00281,0.01277-0.00275,0.04549-0.016711,0.09751-0.013984,0.05214-0.012548,0.09128,0.00416,0.1174v0.0097c0.022429,0.11726,0.071243,0.21159,0.14653,0.28306,0.075289,0.07156,0.16049,0.10089,0.2553,0.08766,0.36281-0.05205,0.68086-0.12333,0.95425-0.21463,1.4621-0.43632,2.7456-1.2237,3.8505-2.363,0.41843,0.05205,0.82302,0.07821,1.2137,0.07821,1.3616,0,2.6173-0.27831,3.7668-0.83504,1.1495-0.55649,2.0591-1.3148,2.7287-2.2749,0.669-0.95966,1.004-2.0062,1.004-3.1387,0.000029-1.1326-0.33476-2.1791-1.0043-3.139z"/>
</svg>
