<?xml version="1.0" encoding="UTF-8" standalone="no"?>
<!-- Created with Inkscape (http://www.inkscape.org/) -->
<svg xmlns:rdf="http://www.w3.org/1999/02/22-rdf-syntax-ns#" xmlns="http://www.w3.org/2000/svg" height="16.962" width="20" version="1.1" xmlns:cc="http://creativecommons.org/ns#" xmlns:dc="http://purl.org/dc/elements/1.1/">
	<metadata>
		<rdf:RDF>
			<cc:Work rdf:about="">
				<dc:format>image/svg+xml</dc:format>
				<dc:type rdf:resource="http://purl.org/dc/dcmitype/StillImage"/>
				<dc:title/>
			</cc:Work>
		</rdf:RDF>
	</metadata>
	<path style="enable-background:accumulate;color:#000000;" d="m0,0,0,16.962,20,0v-16.962zm0.78125,0.78125,18.438,0,0,15.399-18.438,0z" fill="#ff4081"/>
	<path style="enable-background:accumulate;color:#000000;" d="m2.0422,1.9791,0,13.002,1.1335,0l2.0468-3.503,1.9532-1.138,2.0843-1.2462,2.829-3.8362,2,3.0071,1.1194,3.5035,2.2248,3.2131h0.52458v-13.002zm3.2412,0.64637c0.96903,0,1.7564,0.78739,1.7564,1.7564,0,0.96903-0.78739,1.7517-1.7564,1.7517-0.96903,0-1.7517-0.78271-1.7517-1.7517,0-0.96904,0.7827-1.7564,1.7517-1.7564z" fill="#ff4081"/>
</svg>
