<?xml version="1.0" encoding="UTF-8" standalone="no"?>
<!-- Created with Inkscape (http://www.inkscape.org/) -->
<svg xmlns:rdf="http://www.w3.org/1999/02/22-rdf-syntax-ns#" xmlns="http://www.w3.org/2000/svg" height="13.968" width="15" version="1.1" xmlns:cc="http://creativecommons.org/ns#" xmlns:dc="http://purl.org/dc/elements/1.1/">
	<metadata>
		<rdf:RDF>
			<cc:Work rdf:about="">
				<dc:format>image/svg+xml</dc:format>
				<dc:type rdf:resource="http://purl.org/dc/dcmitype/StillImage"/>
				<dc:title/>
			</cc:Work>
		</rdf:RDF>
	</metadata>
	<rect style="enable-background:accumulate;color:#000000;" transform="scale(-1,-1)" fill-rule="nonzero" ry="0" height="1.2234" width="7.5845" y="-3.6029" x="-7.5845" fill="#b3b3b3"/>
	<rect style="enable-background:accumulate;color:#000000;" transform="scale(-1,-1)" fill-rule="nonzero" ry="0" height="1.2234" width="15" y="-5.9823" x="-15" fill="#b3b3b3"/>
	<rect style="enable-background:accumulate;color:#000000;" transform="scale(-1,-1)" fill-rule="nonzero" ry="0" height="1.2234" width="7.5845" y="-8.3617" x="-7.5845" fill="#b3b3b3"/>
	<rect style="enable-background:accumulate;color:#000000;" transform="scale(-1,-1)" fill-rule="nonzero" ry="0" height="1.2234" width="7.5845" y="-10.741" x="-7.5845" fill="#b3b3b3"/>
	<rect style="enable-background:accumulate;color:#000000;" transform="scale(-1,-1)" fill-rule="nonzero" ry="0" height="1.2234" width="7.5845" y="-13.121" x="-7.5845" fill="#b3b3b3"/>
	<path style="enable-background:accumulate;color:#000000;" fill-rule="nonzero" transform="matrix(-0.18218315,0,0,-0.18218315,6730.6528,-362.86654)" fill="#b3b3b3" d="m36881-2030.3-6.159-10.675-5.917-10.241,12.323,0,11.829,0-6.166,10.67z"/>
	<rect style="enable-background:accumulate;color:#000000;" transform="matrix(0,1,-1,0,0,0)" fill-rule="nonzero" ry="0" height="1.2234" width="4.2054" y="-12.165" x="9.7631" fill="#b3b3b3"/>
	<rect style="enable-background:accumulate;color:#000000;" transform="scale(-1,-1)" fill-rule="nonzero" ry="0" height="1.2234" width="7.5845" y="-1.2234" x="-7.5845" fill="#b3b3b3"/>
</svg>
