<?xml version="1.0" encoding="UTF-8" standalone="no"?>
<!-- Created with Inkscape (http://www.inkscape.org/) -->
<svg xmlns:rdf="http://www.w3.org/1999/02/22-rdf-syntax-ns#" xmlns="http://www.w3.org/2000/svg" height="12.626" width="15" version="1.1" xmlns:cc="http://creativecommons.org/ns#" xmlns:dc="http://purl.org/dc/elements/1.1/">
	<metadata>
		<rdf:RDF>
			<cc:Work rdf:about="">
				<dc:format>image/svg+xml</dc:format>
				<dc:type rdf:resource="http://purl.org/dc/dcmitype/StillImage"/>
				<dc:title/>
			</cc:Work>
		</rdf:RDF>
	</metadata>
	<rect style="enable-background:accumulate;color:#000000;" transform="scale(-1,-1)" fill-rule="nonzero" ry="0" height="1.2069" width="15" y="-1.2069" x="-15" fill="#ff4081"/>
	<rect style="enable-background:accumulate;color:#000000;" transform="scale(-1,-1)" fill-rule="nonzero" ry="0" height="1.2069" width="7.4819" y="-3.4907" x="-7.4826" fill="#ff4081"/>
	<rect style="enable-background:accumulate;color:#000000;" transform="scale(-1,-1)" fill-rule="nonzero" ry="0" height="1.2069" width="7.4819" y="-5.7746" x="-7.4826" fill="#ff4081"/>
	<rect style="enable-background:accumulate;color:#000000;" transform="scale(-1,-1)" fill-rule="nonzero" ry="0" height="1.2069" width="7.4819" y="-8.0585" x="-7.4826" fill="#ff4081"/>
	<rect style="enable-background:accumulate;color:#000000;" transform="scale(-1,-1)" fill-rule="nonzero" ry="0" height="1.2069" width="7.4819" y="-10.342" x="-7.4826" fill="#ff4081"/>
	<rect style="enable-background:accumulate;color:#000000;" transform="scale(-1,-1)" fill-rule="nonzero" ry="0" height="1.2069" width="7.4819" y="-12.626" x="-7.4826" fill="#ff4081"/>
	<path style="enable-background:accumulate;color:#000000;" d="m36881-2030.3-6.159-10.675-5.917-10.241,12.323,0,11.829,0-6.166,10.67z" fill-rule="nonzero" transform="matrix(-0.17971948,0,0,-0.17971948,6639.635,-363.19369)" fill="#ff4081"/>
	<rect ry="0" style="enable-background:accumulate;color:#000000;" fill-rule="nonzero" transform="matrix(0,1,-1,0,0,0)" height="1.2069" width="7.4819" y="-12.002" x="4.3968" fill="#ff4081"/>
</svg>
