<?xml version="1.0" encoding="UTF-8" standalone="no"?>
<!-- Created with Inkscape (http://www.inkscape.org/) -->
<svg xmlns:rdf="http://www.w3.org/1999/02/22-rdf-syntax-ns#" xmlns="http://www.w3.org/2000/svg" height="18.89" width="20" version="1.1" xmlns:cc="http://creativecommons.org/ns#" xmlns:dc="http://purl.org/dc/elements/1.1/">
	<metadata>
		<rdf:RDF>
			<cc:Work rdf:about="">
				<dc:format>image/svg+xml</dc:format>
				<dc:type rdf:resource="http://purl.org/dc/dcmitype/StillImage"/>
				<dc:title/>
			</cc:Work>
		</rdf:RDF>
	</metadata>
	<path style="enable-background:accumulate;color:#000000;" fill-rule="nonzero" transform="matrix(0.31571623,0,0,0.31571623,-11127.805,1224.6542)" fill="#ff4081" d="m35272-3826.3-9.005-0.1792-5.253,7.3171-2.613-8.6203-8.582-2.7348,7.391-5.1485-0.05-9.0073,7.18,5.4384,8.551-2.832-2.953,8.5096z"/>
	<path style="enable-background:accumulate;color:#000000;" d="m35327-3823.4a9.1427,9.1427,0,1,1,-18.285,0,9.1427,9.1427,0,1,1,18.285,0z" transform="matrix(0.31031432,0,0,0.31031432,-10943.553,1198.9046)" fill="#ff4081"/>
	<path stroke-linejoin="miter" style="enable-background:accumulate;color:#000000;" d="M0.79604,5.6243c1.3389-1.2204,2.5552-2.7744,4.2633-2.9675,1.4374-0.1624-2.2613,3.2293-1.1705,4.1795,0.8113,0.7068,7.2092-5.2681,7.6482-4.5556,0.174,0.3475-3.2371,5.1065-2.2985,5.6423,1.3645,0.7791,7.6415-7.4432,9.2155-7.3768,2.098,0.08853,0.374,4.8771-0.104,6.4573" stroke-dashoffset="0" stroke="#ff4081" stroke-linecap="square" stroke-miterlimit="4" stroke-dasharray="none" stroke-width="1.06024075" fill="none"/>
</svg>
